<svg width="393" height="852" viewBox="0 0 393 852" fill="none" xmlns="http://www.w3.org/2000/svg">
<rect width="393" height="852" fill="#1E1E1E"/>
<g clip-path="url(#clip0_0_1)">
<rect width="393" height="852" fill="white"/>
<rect width="393" height="852" fill="#D9D9D9"/>
<ellipse cx="56.5" cy="55.5" rx="85.5" ry="82.5" fill="#FA5EE7"/>
<ellipse cx="178.5" cy="-11.5" rx="85.5" ry="82.5" fill="#FA5EE7"/>
<ellipse cx="326.5" cy="-26.5" rx="85.5" ry="82.5" fill="#FA5EE7"/>
<ellipse cx="-15.5" cy="177.5" rx="85.5" ry="82.5" fill="#FA5EE7"/>
<ellipse cx="326.5" cy="797.5" rx="85.5" ry="82.5" fill="#FA5EE7"/>
<ellipse cx="43.5" cy="890.5" rx="85.5" ry="82.5" fill="#FA5EE7"/>
<ellipse cx="196.5" cy="862.5" rx="85.5" ry="82.5" fill="#FA5EE7"/>
<ellipse cx="377.5" cy="661.5" rx="85.5" ry="82.5" fill="#FA5EE7"/>
<path d="M129 505C129 555.81 86.2432 597 33.5 597C-19.2432 597 -62 555.81 -62 505C-62 454.19 -19.2432 413 33.5 413C86.2432 413 129 454.19 129 505Z" fill="#F172D5" fill-opacity="0.3"/>
<path d="M455 178C455 228.81 412.243 270 359.5 270C306.757 270 264 228.81 264 178C264 127.19 306.757 86 359.5 86C412.243 86 455 127.19 455 178Z" fill="#F172D5" fill-opacity="0.3"/>
<path d="M473 438C473 488.81 430.243 530 377.5 530C324.757 530 282 488.81 282 438C282 387.19 324.757 346 377.5 346C430.243 346 473 387.19 473 438Z" fill="#F172D5" fill-opacity="0.3"/>
<path d="M248 385.5C248 423.332 216.884 454 178.5 454C140.116 454 109 423.332 109 385.5C109 347.668 140.116 317 178.5 317C216.884 317 248 347.668 248 385.5Z" fill="#F172D5" fill-opacity="0.3"/>
<path d="M241 552.5C241 577.077 219.062 597 192 597C164.938 597 143 577.077 143 552.5C143 527.923 164.938 508 192 508C219.062 508 241 527.923 241 552.5Z" fill="#F172D5" fill-opacity="0.3"/>
<path d="M241 139.5C241 164.077 221.972 184 198.5 184C175.028 184 156 164.077 156 139.5C156 114.923 175.028 95 198.5 95C221.972 95 241 114.923 241 139.5Z" fill="#F172D5" fill-opacity="0.3"/>
<path d="M161 249C161 277.719 137.943 301 109.5 301C81.0573 301 58 277.719 58 249C58 220.281 81.0573 197 109.5 197C137.943 197 161 220.281 161 249Z" fill="#F172D5" fill-opacity="0.3"/>
<path d="M129 714.5C129 739.077 107.062 759 80 759C52.938 759 31 739.077 31 714.5C31 689.923 52.938 670 80 670C107.062 670 129 689.923 129 714.5Z" fill="#F172D5" fill-opacity="0.3"/>
<path d="M255 719.5C255 733.031 244.926 744 232.5 744C220.074 744 210 733.031 210 719.5C210 705.969 220.074 695 232.5 695C244.926 695 255 705.969 255 719.5Z" fill="#F172D5" fill-opacity="0.3"/>
</g>
<defs>
<clipPath id="clip0_0_1">
<rect width="393" height="852" fill="white"/>
</clipPath>
</defs>
</svg>
